<svg id="Layer_1" data-name="Layer 1" xmlns="http://www.w3.org/2000/svg" viewBox="0 0 300 200"><defs><style>.cls-1{fill:#2d0051;}</style></defs><title>TripDotCom</title><path class="cls-1" d="M98.35,111.48a5,5,0,0,0,4.92,5.87h2.84l6.44-36.54h11.34l1.36-7.74H93.72l-1.36,7.74h11.39Z"/><path class="cls-1" d="M128.68,117.35,132,98.58h4.37l6.37,18.77h10L145.38,98A14.92,14.92,0,0,0,156.65,86.3c1.3-7.38-3.45-13.23-10.77-13.23h-18.3l-7.81,44.28Zm6.45-36.54h9a4.36,4.36,0,0,1,4.41,5.43,6.57,6.57,0,0,1-6.33,5.43h-4.67a3.65,3.65,0,0,1-3.6-4.29Z"/><path class="cls-1" d="M161,117.35h2.56l7.8-44.28H162.4l-6.71,38A5.34,5.34,0,0,0,161,117.35Z"/><path class="cls-1" d="M194.53,73.07h-18.3l-7.81,44.28h.05l-.72,4.1H90.13v1.27a6.46,6.46,0,0,0,6.46,6.46h74.53a4.83,4.83,0,0,0,4.76-4l.66-3.74.72-4.1h.07l3.22-18.24h9.39a15.85,15.85,0,0,0,15.37-12.87C206.59,79,201.91,73.07,194.53,73.07Zm2.68,13.23a6.82,6.82,0,0,1-6.82,5.55h-3.88a3.94,3.94,0,0,1-3.87-4.62l1.14-6.42h8.56C195.58,80.81,197.79,83.05,197.21,86.3Z"/><path class="cls-1" d="M178.4,127.6a1.74,1.74,0,0,1,1.72-1.72,1.73,1.73,0,1,1,0,3.46A1.74,1.74,0,0,1,178.4,127.6Z"/><path class="cls-1" d="M183.57,125.15c0-2.4,1.43-4.19,3.8-4.19a3.41,3.41,0,0,1,2.08.65V123a2.68,2.68,0,0,0-1.93-.87c-1.6,0-2.55,1.29-2.55,3s.95,3,2.55,3a2.58,2.58,0,0,0,1.93-.87v1.42a3.44,3.44,0,0,1-2.08.66C185,129.34,183.57,127.55,183.57,125.15Z"/><path class="cls-1" d="M189.88,125.07a3.94,3.94,0,1,1,3.93,4.19A3.95,3.95,0,0,1,189.88,125.07Zm6.46,0a2.65,2.65,0,0,0-2.53-2.93c-1.58,0-2.53,1.3-2.53,2.93s.95,2.92,2.53,2.92A2.64,2.64,0,0,0,196.34,125.07Z"/><path class="cls-1" d="M210.74,124v5.19h-1.43v-5a1.89,1.89,0,0,0-1.92-1.93,2,2,0,0,0-2,2v5h-1.44v-5a1.88,1.88,0,0,0-1.91-1.93,2,2,0,0,0-2,2v5h-1.42v-8.06h1.3l.07,1A3.08,3.08,0,0,1,202.4,121a2.86,2.86,0,0,1,2.57,1.47,3.31,3.31,0,0,1,2.78-1.47A2.91,2.91,0,0,1,210.74,124Z"/></svg>